<svg id="Layer_1" data-name="Layer 1" xmlns="http://www.w3.org/2000/svg" viewBox="0 0 886.63 748.73"><defs><style>.cls-1{fill:#1968ff;}</style></defs><path class="cls-1" d="M317.71,489.65c10.13-14.21,75.16-102.61,177-103.87a185.27,185.27,0,0,1,65.78,11.43l139.93,85.08c25.47,16.73,35.68,35.31,40.13,46.22,21.38,52.35-8.86,126.12-79,178.28,78.92,49.21,159.83,60.5,204.19,24.64A88.91,88.91,0,0,0,889.14,702V487.36h-44.2L720.51,409.14h301.21l123.17,78H1012.05v644.57L888.63,1054V827.43a350.2,350.2,0,0,1-124.19-51.3c65,65.52,70.63,161.59,24.13,218.16-48.16,58.59-131.93,50-138.41,49.27-5.87-.77-14.32-2-24.38-4.07C559.46,1026,513.59,996.75,483.3,977c-18.72-12.2-62.46-42.34-108.95-93.21A610.9,610.9,0,0,1,263.87,711.62l123.69,76.7A628.66,628.66,0,0,0,497.78,960.51c74.18,15.7,145.26-8,176.46-57.59,24.81-39.47,20.1-88.55,19.09-97.59a168.91,168.91,0,0,0-24.89-70.85,343.37,343.37,0,0,0-103.36,8.63L441.65,664.89C531.9,645.65,601.43,592.75,617.47,524c3.45-14.77,5.58-35.18.69-60.54A218.88,218.88,0,0,0,443.94,567.37Z" transform="translate(-261.71 -384.76)"/></svg>